<svg xmlns="http://www.w3.org/2000/svg" viewBox="0 0 512 512"><rect width="512" height="512" rx="112" fill="#123c31"/><circle cx="402" cy="105" r="72" fill="#d7a548" opacity=".2"/><path fill="#f4f1e8" d="M168 190h176l-13 211c-1 20-18 35-38 35h-74c-20 0-37-15-38-35l-13-211Zm38-64h100l17 30H189l17-30Zm-45 39h190a14 14 0 0 1 0 28H161a14 14 0 0 1 0-28Z"/><path stroke="#123c31" stroke-linecap="round" stroke-width="18" d="M226 235v145m60-145v145" opacity=".72"/><path fill="#d7a548" d="M256 58c27 0 49 17 49 38s-22 38-49 38-49-17-49-38 22-38 49-38Z"/></svg>
